<?xml version="1.0" standalone="no"?>
<!DOCTYPE svg PUBLIC "-//W3C//DTD SVG 20010904//EN"
 "http://www.w3.org/TR/2001/REC-SVG-20010904/DTD/svg10.dtd">
<svg version="1.0" xmlns="http://www.w3.org/2000/svg"
 width="700.000000pt" height="700.000000pt" viewBox="0 0 700.000000 700.000000"
 preserveAspectRatio="xMidYMid meet">
<metadata>
Created by potrace 1.11, written by Peter Selinger 2001-2013
</metadata>
<g transform="translate(0.000000,700.000000) scale(0.100000,-0.100000)"
fill="#000000" stroke="none">
<path d="M1446 6620 l-70 -5 -31 -100 c-17 -55 -34 -107 -38 -115 -3 -8 -38
-116 -77 -240 -40 -124 -89 -277 -110 -340 -21 -63 -63 -194 -95 -290 -31 -96
-87 -269 -125 -385 -123 -380 -367 -1130 -476 -1470 -25 -77 -48 -147 -51
-155 -4 -8 -7 -17 -8 -20 -1 -7 -115 -360 -190 -590 -93 -283 -98 -300 -94
-304 2 -1 168 -121 369 -266 201 -145 375 -272 387 -283 l21 -19 37 119 c20
65 52 170 72 233 19 63 42 138 51 165 9 28 17 55 18 60 1 8 110 365 159 525 8
25 37 122 65 215 28 94 55 181 60 195 13 38 54 174 55 182 0 3 4 10 8 15 5 4
549 8 1210 8 756 1 1201 4 1201 10 -1 6 -15 55 -32 110 -17 55 -63 206 -102
335 -39 129 -83 272 -97 318 l-25 82 -949 0 -949 0 11 28 c6 15 17 50 24 77 8
28 36 122 63 210 28 88 57 183 65 210 9 28 39 127 67 220 28 94 67 221 86 284
18 63 38 118 44 121 6 4 646 7 1423 8 777 0 1424 1 1438 1 l26 1 -50 143 c-27
78 -93 269 -146 425 l-97 283 -1539 2 c-847 1 -1571 0 -1609 -3z"/>
<path d="M4725 6622 c-2 -2 10 -43 27 -90 51 -148 209 -604 228 -662 10 -30
57 -167 105 -305 48 -137 97 -281 110 -320 34 -101 181 -526 193 -555 5 -14
12 -37 16 -52 l6 -28 -870 0 c-478 0 -870 -3 -870 -6 0 -7 20 -74 172 -574
l84 -275 891 0 892 0 14 -45 c9 -25 57 -164 107 -310 50 -146 103 -299 117
-340 14 -41 29 -82 34 -91 7 -13 -28 -42 -184 -153 -106 -76 -202 -145 -214
-154 -13 -9 -44 -32 -70 -50 -27 -18 -103 -72 -170 -120 -66 -48 -131 -94
-143 -102 -12 -8 -72 -51 -133 -95 -62 -44 -122 -87 -134 -95 -70 -49 -434
-307 -463 -329 -19 -15 -84 -62 -145 -105 -60 -42 -250 -177 -421 -299 -171
-122 -329 -235 -351 -250 l-41 -28 -99 72 c-54 40 -132 97 -173 128 -41 31
-91 67 -111 81 -20 14 -50 35 -65 48 -125 98 -1814 1329 -1817 1324 -3 -4 -17
-47 -32 -97 -14 -49 -44 -146 -65 -215 -21 -69 -53 -172 -70 -230 -17 -58 -48
-156 -67 -218 -19 -63 -31 -117 -27 -121 13 -11 136 -101 364 -267 113 -81
223 -162 246 -179 22 -16 51 -38 65 -48 13 -9 427 -311 920 -671 493 -359 901
-656 907 -660 6 -4 24 1 39 11 15 10 384 276 818 592 435 316 808 587 830 603
64 45 135 97 266 193 68 50 133 97 146 105 19 13 240 173 443 322 94 69 185
135 553 402 180 131 330 242 333 247 3 5 -15 71 -40 147 -97 296 -218 671
-311 957 -122 378 -202 624 -226 695 -10 30 -66 204 -124 385 -59 182 -115
355 -125 385 -10 30 -62 190 -115 355 -53 165 -103 318 -110 340 -42 120 -235
724 -235 733 0 8 -20 12 -52 13 -318 3 -850 3 -853 1z"/>
</g>
</svg>
